<!DOCTYPE svg PUBLIC "-//W3C//DTD SVG 1.1//EN" "http://www.w3.org/Graphics/SVG/1.1/DTD/svg11.dtd">
<!-- Uploaded to: SVG Repo, www.svgrepo.com, Transformed by: SVG Repo Mixer Tools -->
<svg fill="#000000" height="128px" width="128px" version="1.1" id="Layer_1" xmlns="http://www.w3.org/2000/svg" xmlns:xlink="http://www.w3.org/1999/xlink" viewBox="0 0 512.003 512.003" xml:space="preserve">
<g id="SVGRepo_bgCarrier" stroke-width="0"/>
<g id="SVGRepo_tracerCarrier" stroke-linecap="round" stroke-linejoin="round"/>
<g id="SVGRepo_iconCarrier"> <g> <g> <path d="M415.491,319.533L127.917,6.893c-5.952-6.485-15.253-8.619-23.445-5.44c-8.192,3.2-13.589,11.093-13.589,19.883v469.333 c0,11.776,9.536,21.333,21.333,21.333h85.333c11.797,0,21.333-9.557,21.333-21.333V290.84l101.803,114.688 c3.797,4.267,9.131,6.848,14.827,7.147c5.973,0.363,11.285-1.685,15.488-5.525l63.125-57.387c4.224-3.819,6.72-9.173,6.976-14.848 C421.336,329.261,419.331,323.715,415.491,319.533z"/> </g> </g> </g>
</svg>